<svg xmlns="http://www.w3.org/2000/svg" data-name="Bahan copy 6" viewBox="0 0 64 64"><path fill="#eb0937" d="M15.07751,52.7887l.77307,6.08526a1.00033,1.00033,0,0,1-1.98437.252L12.753,50.36235a1.01477,1.01477,0,0,1,1.11813-1.11821l8.76411,1.1123a1.00032,1.00032,0,0,1-.2519,1.98438l-5.49221-.6976C34.90425,65.47569,60.78014,49.60869,56.2998,27.10261a1.00029,1.00029,0,0,1,1.96094-.3946C63.06445,51.38633,34.63554,68.52464,15.07751,52.7887Zm-.60632-38.29847a24.80754,24.80754,0,0,1,32.58258-2.13586l-5.47467-.69519a1.00034,1.00034,0,0,0-.25189,1.98439c.00669.00042,8.764,1.11316,8.77031,1.11272a.973.973,0,0,0,1.11142-1.11862L50.09619,4.874a1.00037,1.00037,0,0,0-1.98437.252l.7738,6.0943A26.79238,26.79238,0,0,0,5.70068,37.13477a1.00023,1.00023,0,0,0,1.96387-.38087A24.77859,24.77859,0,0,1,14.47119,14.49023ZM35.87,42.73a1,1,0,0,0-2,0c-.0021,1.23265.00291,4.11772,0,5.32l-3.74,0c-.00372-1.21167.00512-4.08249,0-5.32a1,1,0,0,0-2,0v5.32H26.6a3.02583,3.02583,0,0,1-3.03-3.02V43.27A3.09874,3.09874,0,0,0,22.5,40.95a14.30793,14.30793,0,0,1,10.4298-24.97c12.57854.77889,18.033,16.66381,8.55028,24.98-1.22742.95552-1.06654,2.69934-1.05009,4.07a3.02583,3.02583,0,0,1-3.03,3.02H35.87C35.87644,46.83828,35.86106,43.96746,35.87,42.73ZM26.5801,25.96A3.81008,3.81008,0,0,0,26.58,33.58,3.81008,3.81008,0,0,0,26.5801,25.96ZM33.73,34.17A2.00671,2.00671,0,0,0,30.27,34.17L29.15008,36.1a2.01061,2.01061,0,0,0,1.7299,3c1.24072-.07545,3.27088.401,3.97-1C35.71,36.82029,34.28662,35.26124,33.73,34.17Zm7.51-4.4A3.81521,3.81521,0,0,0,33.61,29.77,3.81521,3.81521,0,0,0,41.24,29.77ZM26.58,27.96a1.81007,1.81007,0,0,0,.00008,3.62A1.81007,1.81007,0,0,0,26.58,27.96Zm12.66,1.81a1.81527,1.81527,0,0,0-3.63.00008A1.81527,1.81527,0,0,0,39.24,29.77ZM30.88,37.1h2.24L32,35.17Z" class="colorff377e svgShape"/></svg>